<mxfile host="app.diagrams.net" modified="2024-04-01T12:10:05.207Z" agent="Mozilla/5.0 (X11; Linux x86_64) AppleWebKit/537.36 (KHTML, like Gecko) Chrome/123.0.0.0 Safari/537.36" etag="liHWg70q--0m7zvz7tPC" version="24.2.1" type="github">
  <diagram id="6a731a19-8d31-9384-78a2-239565b7b9f0" name="Page-1">
    <mxGraphModel dx="540" dy="1847" grid="1" gridSize="10" guides="1" tooltips="1" connect="1" arrows="1" fold="1" page="1" pageScale="1" pageWidth="1169" pageHeight="827" background="none" math="0" shadow="0">
      <root>
        <mxCell id="0" />
        <mxCell id="1" parent="0" />
        <mxCell id="Slsr_JI6GFzeZu4OSTTz-56" value="&lt;span style=&quot;font-size: 25px; font-weight: 700;&quot;&gt;01. SW Requirement&lt;/span&gt;&lt;div&gt;&lt;br&gt;&lt;/div&gt;" style="text;html=1;whiteSpace=wrap;overflow=hidden;rounded=0;labelBackgroundColor=none;" vertex="1" parent="1">
          <mxGeometry x="41" y="110" width="790" height="190" as="geometry" />
        </mxCell>
        <mxCell id="Slsr_JI6GFzeZu4OSTTz-57" value="&lt;span style=&quot;font-size: 25px; font-weight: 700;&quot;&gt;04. SW Design&lt;/span&gt;&lt;div&gt;&lt;span style=&quot;font-size: 25px; font-weight: 700;&quot;&gt;&lt;br&gt;&lt;/span&gt;&lt;/div&gt;&lt;div&gt;&lt;span style=&quot;font-size: 25px;&quot;&gt;iii&lt;/span&gt;&lt;span style=&quot;font-size: 25px; font-weight: 700;&quot;&gt;&lt;br&gt;&lt;/span&gt;&lt;/div&gt;" style="text;html=1;whiteSpace=wrap;overflow=hidden;rounded=0;labelBackgroundColor=none;" vertex="1" parent="1">
          <mxGeometry x="40" y="920" width="790" height="180" as="geometry" />
        </mxCell>
        <mxCell id="Slsr_JI6GFzeZu4OSTTz-58" value="&lt;h1 style=&quot;margin-top: 0px;&quot;&gt;&lt;span style=&quot;font-size: 41px;&quot;&gt;RFID: Read UID from Tag and indicate colors by LED&lt;/span&gt;&lt;/h1&gt;" style="text;html=1;whiteSpace=wrap;overflow=hidden;rounded=0;labelBackgroundColor=none;" vertex="1" parent="1">
          <mxGeometry x="40" y="20" width="1100" height="70" as="geometry" />
        </mxCell>
        <mxCell id="Slsr_JI6GFzeZu4OSTTz-71" value="&lt;span style=&quot;font-size: 25px; font-weight: 700;&quot;&gt;(02. UML -&amp;gt; Satate Diagram)&lt;/span&gt;&lt;div&gt;&lt;span style=&quot;font-size: 25px; font-weight: 700;&quot;&gt;&lt;br&gt;&lt;/span&gt;&lt;/div&gt;&lt;div&gt;&lt;span style=&quot;font-size: 25px;&quot;&gt;iii&lt;/span&gt;&lt;/div&gt;" style="text;html=1;whiteSpace=wrap;overflow=hidden;rounded=0;labelBackgroundColor=none;" vertex="1" parent="1">
          <mxGeometry x="40" y="371" width="790" height="190" as="geometry" />
        </mxCell>
        <mxCell id="Slsr_JI6GFzeZu4OSTTz-72" value="&lt;span style=&quot;font-size: 25px; font-weight: 700;&quot;&gt;(03. FSM)&lt;/span&gt;&lt;div&gt;&lt;span style=&quot;font-size: 25px; font-weight: 700;&quot;&gt;&lt;br&gt;&lt;/span&gt;&lt;/div&gt;&lt;div&gt;&lt;span style=&quot;font-size: 25px;&quot;&gt;...?&lt;/span&gt;&lt;/div&gt;" style="text;html=1;whiteSpace=wrap;overflow=hidden;rounded=0;labelBackgroundColor=none;" vertex="1" parent="1">
          <mxGeometry x="41" y="640" width="790" height="190" as="geometry" />
        </mxCell>
      </root>
    </mxGraphModel>
  </diagram>
</mxfile>
